<?xml version="1.0" standalone="no"?>
<!DOCTYPE svg PUBLIC "-//W3C//DTD SVG 20010904//EN"
 "http://www.w3.org/TR/2001/REC-SVG-20010904/DTD/svg10.dtd">
<svg version="1.0" xmlns="http://www.w3.org/2000/svg"
 width="512.000000pt" height="512.000000pt" viewBox="0 0 512.000000 512.000000"
 preserveAspectRatio="xMidYMid meet">
<metadata>
Created by potrace 1.11, written by Peter Selinger 2001-2013
</metadata>
<style type="text/css">
	.st0{fill:#00A8E0;}
</style>
<g transform="translate(0.000000,512.000000) scale(0.100000,-0.100000)"
fill="" stroke="">
<path class="st0" d="M0 2560 l0 -2560 2560 0 2560 0 0 2560 0 2560 -2560 0 -2560 0 0
-2560z m3016 1673 c67 -23 164 -120 187 -187 54 -159 -18 -334 -168 -406 -75
-36 -190 -35 -267 3 -107 52 -179 164 -180 280 -2 141 81 265 209 312 53 19
160 18 219 -2z m-731 -208 c228 -102 232 -431 7 -542 -78 -38 -183 -40 -256
-4 -63 31 -116 84 -147 147 -34 69 -34 189 0 254 80 154 243 214 396 145z
m1486 -113 c63 -31 127 -96 158 -162 22 -46 26 -69 26 -140 0 -73 -4 -93 -28
-142 -35 -72 -110 -140 -185 -168 -78 -30 -185 -24 -257 12 -192 98 -243 338
-108 514 27 36 89 80 142 100 56 21 195 14 252 -14z m-2042 -299 c145 -52 227
-237 171 -385 -26 -70 -92 -141 -158 -171 -69 -32 -180 -31 -247 3 -184 90
-232 322 -97 471 89 99 204 127 331 82z m1071 -229 c71 -21 159 -107 183 -178
39 -114 14 -221 -72 -307 -70 -69 -133 -94 -225 -87 -277 23 -373 382 -142
536 81 54 159 65 256 36z m1455 -28 c72 -33 129 -87 162 -154 24 -50 28 -69
28 -147 0 -73 -4 -99 -23 -136 -36 -74 -87 -125 -159 -161 -164 -80 -354 -15
-435 150 -30 60 -33 76 -33 152 0 78 3 90 34 148 86 158 267 221 426 148z
m-915 -148 c57 -30 82 -65 88 -126 18 -193 -258 -238 -308 -51 -26 94 53 194
155 198 12 1 41 -9 65 -21z m-1122 -154 c173 -86 214 -300 86 -443 -62 -69
-121 -95 -209 -95 -270 1 -385 346 -169 510 79 61 203 72 292 28z m-764 -85
c21 -6 58 -29 82 -51 110 -101 97 -273 -27 -355 -54 -36 -157 -44 -213 -18
-148 70 -180 251 -66 365 64 64 136 83 224 59z m2160 -23 c100 -42 38 -190
-65 -154 -67 23 -71 125 -5 154 38 16 31 16 70 0z m-1668 -511 c89 -26 154
-114 154 -210 0 -94 -42 -165 -123 -206 -49 -26 -142 -27 -188 -4 -189 95
-177 351 20 421 48 17 77 17 137 -1z m-506 -24 c19 -10 49 -37 65 -60 26 -37
30 -52 30 -104 0 -76 -28 -126 -89 -162 -94 -55 -218 -19 -265 77 -80 167 92
333 259 249z m55 -477 c108 -51 104 -212 -7 -270 -84 -43 -198 20 -214 117 -8
50 25 122 68 149 40 24 107 26 153 4z m346 -49 c60 -31 85 -106 54 -165 -35
-68 -116 -91 -182 -50 -40 24 -56 54 -56 105 0 96 98 154 184 110z m-367 -349
c53 -22 79 -63 73 -116 -7 -61 -50 -100 -111 -100 -129 0 -158 170 -36 219 34
13 36 13 74 -3z m-133 -345 c16 -16 29 -39 29 -51 0 -28 -52 -80 -80 -80 -25
0 -80 51 -80 74 0 27 22 64 44 74 35 18 56 13 87 -17z m-449 -28 c22 -20 23
-70 1 -95 -35 -39 -113 -8 -113 45 0 58 69 89 112 50z m214 -108 c40 -16 68
-70 58 -110 -8 -32 -59 -75 -89 -75 -57 0 -105 47 -105 103 0 40 52 93 93 96
4 1 23 -6 43 -14z"/>
</g>
</svg>
