<?xml version="1.0" encoding="utf-8"?>
<!-- Generator: Adobe Illustrator 22.0.1, SVG Export Plug-In . SVG Version: 6.00 Build 0)  -->
<svg version="1.1" id="Layer_1" xmlns="http://www.w3.org/2000/svg" xmlns:xlink="http://www.w3.org/1999/xlink" x="0px" y="0px"
	 viewBox="0 0 264 320" style="enable-background:new 0 0 264 320;" xml:space="preserve">
<style type="text/css">
	.st0{fill:#FFFFFF;stroke:#5E6060;stroke-width:4;stroke-miterlimit:10;}
	.st1{fill:#45AFD6;}
	.st2{fill:#FFFFFF;stroke:#5E5F5F;stroke-width:4;stroke-miterlimit:10;}
	.st3{stroke:#FFFFFF;stroke-width:0.5;stroke-miterlimit:10;}
	.st4{fill:#686868;stroke:#FFFFFF;stroke-width:0.5;stroke-miterlimit:10;}
	.st5{fill:#ED2024;}
	.st6{fill:#FFFFFF;}
	.st7{font-family:'Raleway-Bold';}
	.st8{font-size:102.955px;}
</style>
<ellipse class="st0" cx="134" cy="235.6" rx="76.4" ry="82.4"/>
<path class="st1" d="M257,229.1c-16.7,28.2-47,8.4-59,1.4c-12-6.9-14.8-24.5-6.3-39.3c8.5-14.8,25.2-21.1,37.2-14.2
	S272.7,202.5,257,229.1z"/>
<path class="st1" d="M7.7,222.6c-8.1-31.8,27.3-39.1,40.7-42.7c13.4-3.6,27.8,6.9,32.2,23.3c4.4,16.5-2.9,32.7-16.3,36.3
	C50.9,243.1,15.3,252.5,7.7,222.6z"/>
<ellipse class="st2" cx="131.9" cy="106.7" rx="123.4" ry="92.1"/>
<ellipse class="st3" cx="67.1" cy="121.3" rx="7.3" ry="13"/>
<ellipse class="st3" cx="200.8" cy="121.3" rx="7.3" ry="13"/>
<path class="st4" d="M74.4,176.2c0-5,27.6-24.4,61.6-24.4s61.6,19.5,61.6,24.4s-27.6-6.4-61.6-6.4S74.4,181.1,74.4,176.2z"/>
<path class="st1" d="M243.7,106.7c0-24-8.6-43.4,0-43.4c8.6,0,15.6,19.4,15.6,43.4s-7,43.4-15.6,43.4
	C235.1,150.1,243.7,130.7,243.7,106.7z"/>
<path class="st1" d="M18.5,109.8c0,24,8.6,43.4,0,43.4S2.9,133.8,2.9,109.8s7-43.4,15.6-43.4S18.5,85.9,18.5,109.8z"/>
<path class="st5" d="M135.5,129.6C80.7,129.2,83.8,69,83.7,45.8s22.9-42,51.3-42.2s51.6,18.5,51.7,41.7S187,129.9,135.5,129.6z"/>
<text transform="matrix(1 0 0 1 120.4138 106.7395)" class="st6 st7 st8">!</text>
</svg>
