<?xml version="1.0" encoding="utf-8"?>
<!-- Generator: Adobe Illustrator 22.0.1, SVG Export Plug-In . SVG Version: 6.00 Build 0)  -->
<svg version="1.1" id="Layer_1" xmlns="http://www.w3.org/2000/svg" xmlns:xlink="http://www.w3.org/1999/xlink" x="0px" y="0px"
	 viewBox="0 0 256.9 197.6" style="enable-background:new 0 0 256.9 197.6;" xml:space="preserve">
<style type="text/css">
	.st0{fill:#FFFFFF;stroke:#5E5F5F;stroke-width:4;stroke-miterlimit:10;}
	.st1{stroke:#FFFFFF;stroke-width:0.5;stroke-miterlimit:10;}
	.st2{fill:#686868;stroke:#FFFFFF;stroke-width:0.5;stroke-miterlimit:10;}
	.st3{fill:#45AFD6;}
	.st4{fill:#FFFFFF;}
</style>
<ellipse class="st0" cx="129.2" cy="104.5" rx="123.4" ry="92.1"/>
<ellipse class="st1" cx="64.5" cy="119.1" rx="7.3" ry="13"/>
<ellipse class="st1" cx="198.2" cy="119.1" rx="7.3" ry="13"/>
<path class="st2" d="M195.1,159.7c0,5-27.6,24.4-61.6,24.4s-61.6-19.5-61.6-24.4s27.6,6.4,61.6,6.4S195.1,154.7,195.1,159.7z"/>
<path class="st3" d="M241,104.5c0-24-8.6-43.4,0-43.4c8.6,0,15.6,19.4,15.6,43.4s-7,43.4-15.6,43.4C232.5,147.9,241,128.5,241,104.5
	z"/>
<path class="st3" d="M15.8,107.6c0,24,8.6,43.4,0,43.4S0.3,131.6,0.3,107.6s7-43.4,15.6-43.4S15.8,83.6,15.8,107.6z"/>
<path class="st3" d="M132.8,127.3C78.1,127,81.2,66.7,81.1,43.6s22.9-42,51.3-42.2s51.6,18.5,51.7,41.7S184.3,127.6,132.8,127.3z"/>
<path class="st4" d="M153.2,44.5c0-2.7-2.2-4.8-4.8-4.8c-2.7,0-4.8,2.2-4.8,4.8c0,2.7,2.2,4.8,4.8,4.8
	C151,49.3,153.2,47.1,153.2,44.5z"/>
<path class="st4" d="M160.4,52.6c0-2.7-2.2-4.8-4.8-4.8s-4.8,2.2-4.8,4.8c0,2.7,2.2,4.8,4.8,4.8S160.4,55.2,160.4,52.6z"/>
<path class="st4" d="M142.3,39.8c0-2.6-2.1-4.7-4.7-4.7c-2.6,0-4.7,2.1-4.7,4.7c0,2.6,2.1,4.7,4.7,4.7
	C140.3,44.4,142.3,42.3,142.3,39.8z"/>
<path class="st4" d="M131.1,42.4c0-2.4-2-4.4-4.4-4.4c-2.4,0-4.4,2-4.4,4.4c0,2.4,2,4.4,4.4,4.4C129.2,46.8,131.1,44.8,131.1,42.4z"
	/>
<path class="st4" d="M139.1,51.9c0-2.4-1.9-4.3-4.3-4.3c-2.4,0-4.3,1.9-4.3,4.3c0,2.4,1.9,4.3,4.3,4.3
	C137.2,56.1,139.1,54.2,139.1,51.9z"/>
<path class="st4" d="M145.4,52.4c0-1.3-1-2.3-2.3-2.3c-1.3,0-2.3,1-2.3,2.3c0,1.3,1,2.3,2.3,2.3C144.4,54.7,145.4,53.7,145.4,52.4z"
	/>
<path class="st4" d="M148.8,55.3c0-0.7-0.6-1.2-1.2-1.2c-0.7,0-1.2,0.6-1.2,1.2c0,0.7,0.6,1.2,1.2,1.2
	C148.3,56.5,148.8,56,148.8,55.3z"/>
<path class="st4" d="M123.2,48.5c0-2.4-2-4.4-4.4-4.4c-2.4,0-4.4,2-4.4,4.4c0,2.4,2,4.4,4.4,4.4C121.2,52.9,123.2,50.9,123.2,48.5z"
	/>
<path class="st4" d="M130,56.3c0-2.3-1.9-4.2-4.2-4.2c-2.3,0-4.2,1.9-4.2,4.2c0,2.3,1.9,4.1,4.2,4.1C128.1,60.5,130,58.6,130,56.3z"
	/>
<path class="st4" d="M118.7,57c0-1.8-1.5-3.3-3.3-3.3c-1.8,0-3.3,1.5-3.3,3.3c0,1.8,1.5,3.3,3.3,3.3C117.2,60.3,118.7,58.8,118.7,57
	z"/>
<path class="st4" d="M117.6,64.4c0-1.5-1.2-2.8-2.8-2.8c-1.5,0-2.8,1.2-2.8,2.8c0,1.5,1.2,2.8,2.8,2.8
	C116.4,67.2,117.6,65.9,117.6,64.4z"/>
<path class="st4" d="M125.9,64.8c0-1.8-1.5-3.3-3.3-3.3s-3.3,1.5-3.3,3.3c0,1.8,1.5,3.3,3.3,3.3S125.9,66.6,125.9,64.8z"/>
<path class="st4" d="M118.1,70.9c0-1.2-1-2.2-2.2-2.2c-1.2,0-2.2,1-2.2,2.2c0,1.2,1,2.2,2.2,2.2C117.2,73.1,118.1,72.1,118.1,70.9z"
	/>
<path class="st4" d="M123,71.3c0-1-0.8-1.9-1.9-1.9c-1,0-1.9,0.8-1.9,1.9c0,1,0.8,1.9,1.9,1.9C122.2,73.2,123,72.3,123,71.3z"/>
<path class="st4" d="M117.8,76.3c0-0.9-0.7-1.7-1.7-1.7c-0.9,0-1.7,0.7-1.7,1.7c0,0.9,0.7,1.7,1.7,1.7C117,78,117.8,77.2,117.8,76.3
	z"/>
<path class="st4" d="M115.1,80.6c0-0.6-0.5-1.1-1.1-1.1c-0.6,0-1.1,0.5-1.1,1.1c0,0.6,0.5,1.1,1.1,1.1
	C114.6,81.7,115.1,81.2,115.1,80.6z"/>
<path class="st4" d="M112.1,83.1c0-0.8-0.6-1.4-1.4-1.4c-0.8,0-1.4,0.6-1.4,1.4c0,0.8,0.6,1.4,1.4,1.4
	C111.5,84.5,112.1,83.9,112.1,83.1z"/>
<path class="st4" d="M108.4,80.9c0-0.5-0.4-1-1-1c-0.5,0-1,0.4-1,1c0,0.5,0.4,1,1,1C108,81.9,108.4,81.5,108.4,80.9z"/>
</svg>
