<?xml version="1.0" encoding="utf-8"?>
<!-- Generator: Adobe Illustrator 22.0.1, SVG Export Plug-In . SVG Version: 6.00 Build 0)  -->
<svg version="1.1" id="Layer_1" xmlns="http://www.w3.org/2000/svg" xmlns:xlink="http://www.w3.org/1999/xlink" x="0px" y="0px"
	 viewBox="0 0 264.9 325.2" style="enable-background:new 0 0 264.9 325.2;" xml:space="preserve">
<style type="text/css">
	.Drop_x0020_Shadow{fill:none;}
	.Round_x0020_Corners_x0020_2_x0020_pt{fill:#FFFFFF;stroke:#000000;stroke-miterlimit:10;}
	.Live_x0020_Reflect_x0020_X{fill:none;}
	.Bevel_x0020_Soft{fill:url(#SVGID_1_);}
	.Dusk{fill:#FFFFFF;}
	.Foliage_GS{fill:#FFDD00;}
	.Pompadour_GS{fill-rule:evenodd;clip-rule:evenodd;fill:#44ADE2;}
	.st0{fill:#FFFFFF;stroke:#5E6060;stroke-width:4;stroke-miterlimit:10;}
	.st1{fill:#45AFD6;}
	.st2{fill:#FFFFFF;stroke:#5E5F5F;stroke-width:4;stroke-miterlimit:10;}
	.st3{stroke:#FFFFFF;stroke-width:0.5;stroke-miterlimit:10;}
	.st4{fill:#686868;stroke:#FFFFFF;stroke-width:0.5;stroke-miterlimit:10;}
	.st5{fill:#FFFFFF;}
</style>
<linearGradient id="SVGID_1_" gradientUnits="userSpaceOnUse" x1="-258.3333" y1="-140.9722" x2="-257.6262" y2="-140.2651">
	<stop  offset="0" style="stop-color:#DEDFE3"/>
	<stop  offset="0.1738" style="stop-color:#D8D9DD"/>
	<stop  offset="0.352" style="stop-color:#C9CACD"/>
	<stop  offset="0.5323" style="stop-color:#B4B5B8"/>
	<stop  offset="0.7139" style="stop-color:#989A9C"/>
	<stop  offset="0.8949" style="stop-color:#797C7E"/>
	<stop  offset="1" style="stop-color:#656B6C"/>
</linearGradient>
<ellipse class="st0" cx="136.2" cy="238.2" rx="76.4" ry="82.4"/>
<path class="st1" d="M259.1,231.7c-16.7,28.2-47,8.4-59,1.4c-12-6.9-14.8-24.5-6.3-39.3c8.5-14.8,25.2-21.1,37.2-14.2
	C243,186.7,274.8,205.2,259.1,231.7z"/>
<path class="st1" d="M9.8,225.3c-8.1-31.8,27.3-39.1,40.7-42.7c13.4-3.6,27.8,6.9,32.2,23.3c4.4,16.5-2.9,32.7-16.3,36.3
	S17.5,255.2,9.8,225.3z"/>
<ellipse class="st2" cx="134" cy="109.4" rx="123.4" ry="92.1"/>
<ellipse class="st3" cx="69.2" cy="124" rx="7.3" ry="13"/>
<ellipse class="st3" cx="203" cy="124" rx="7.3" ry="13"/>
<path class="st4" d="M199.8,164.6c0,5-27.6,24.4-61.6,24.4s-61.6-19.5-61.6-24.4c0-5,27.6,6.4,61.6,6.4S199.8,159.6,199.8,164.6z"/>
<path class="st1" d="M245.8,109.4c0-24-8.6-43.4,0-43.4s15.6,19.4,15.6,43.4s-7,43.4-15.6,43.4S245.8,133.3,245.8,109.4z"/>
<path class="st1" d="M20.6,112.5c0,24,8.6,43.4,0,43.4S5,136.4,5,112.5s7-43.4,15.6-43.4S20.6,88.5,20.6,112.5z"/>
<path class="st1" d="M137.6,132.2C82.8,131.9,86,71.6,85.9,48.5s22.9-42,51.3-42.2c28.4-0.1,51.6,18.5,51.7,41.7
	S189.1,132.5,137.6,132.2z"/>
<path class="st5" d="M157.9,49.3c0-2.7-2.2-4.8-4.8-4.8c-2.7,0-4.8,2.2-4.8,4.8c0,2.7,2.2,4.8,4.8,4.8
	C155.7,54.2,157.9,52,157.9,49.3z"/>
<path class="st5" d="M165.1,57.5c0-2.7-2.2-4.8-4.8-4.8c-2.7,0-4.8,2.2-4.8,4.8c0,2.7,2.2,4.8,4.8,4.8
	C163,62.3,165.1,60.1,165.1,57.5z"/>
<path class="st5" d="M147.1,44.7c0-2.6-2.1-4.7-4.7-4.7c-2.6,0-4.7,2.1-4.7,4.7s2.1,4.7,4.7,4.7C145,49.3,147.1,47.2,147.1,44.7z"/>
<path class="st5" d="M135.9,47.3c0-2.4-2-4.4-4.4-4.4c-2.4,0-4.4,2-4.4,4.4c0,2.4,2,4.4,4.4,4.4C133.9,51.7,135.9,49.7,135.9,47.3z"
	/>
<path class="st5" d="M143.8,56.7c0-2.4-1.9-4.3-4.3-4.3c-2.4,0-4.3,1.9-4.3,4.3c0,2.4,1.9,4.3,4.3,4.3
	C141.9,61,143.8,59.1,143.8,56.7z"/>
<path class="st5" d="M150.2,57.3c0-1.3-1-2.3-2.3-2.3c-1.3,0-2.3,1-2.3,2.3c0,1.3,1,2.3,2.3,2.3C149.1,59.6,150.2,58.6,150.2,57.3z"
	/>
<path class="st5" d="M153.6,60.2c0-0.7-0.6-1.2-1.2-1.2c-0.7,0-1.2,0.6-1.2,1.2c0,0.7,0.6,1.2,1.2,1.2
	C153,61.4,153.6,60.9,153.6,60.2z"/>
<path class="st5" d="M127.9,53.4c0-2.4-2-4.4-4.4-4.4c-2.4,0-4.4,2-4.4,4.4c0,2.4,2,4.4,4.4,4.4C126,57.8,127.9,55.8,127.9,53.4z"/>
<path class="st5" d="M134.7,61.2c0-2.3-1.9-4.2-4.2-4.2c-2.3,0-4.2,1.9-4.2,4.2c0,2.3,1.9,4.1,4.2,4.1
	C132.8,65.4,134.7,63.5,134.7,61.2z"/>
<path class="st5" d="M123.4,61.9c0-1.8-1.5-3.3-3.3-3.3c-1.8,0-3.3,1.5-3.3,3.3c0,1.8,1.5,3.3,3.3,3.3
	C122,65.2,123.4,63.7,123.4,61.9z"/>
<path class="st5" d="M122.4,69.3c0-1.5-1.2-2.8-2.8-2.8c-1.5,0-2.8,1.2-2.8,2.8c0,1.5,1.2,2.8,2.8,2.8
	C121.1,72.1,122.4,70.8,122.4,69.3z"/>
<path class="st5" d="M130.7,69.7c0-1.8-1.5-3.3-3.3-3.3c-1.8,0-3.3,1.5-3.3,3.3c0,1.8,1.5,3.3,3.3,3.3
	C129.2,73,130.7,71.5,130.7,69.7z"/>
<path class="st5" d="M122.9,75.8c0-1.2-1-2.2-2.2-2.2c-1.2,0-2.2,1-2.2,2.2c0,1.2,1,2.2,2.2,2.2C121.9,78,122.9,77,122.9,75.8z"/>
<path class="st5" d="M127.8,76.2c0-1-0.8-1.9-1.9-1.9c-1,0-1.9,0.8-1.9,1.9c0,1,0.8,1.9,1.9,1.9C127,78,127.8,77.2,127.8,76.2z"/>
<path class="st5" d="M122.5,81.2c0-0.9-0.7-1.7-1.7-1.7c-0.9,0-1.7,0.7-1.7,1.7c0,0.9,0.7,1.7,1.7,1.7
	C121.8,82.9,122.5,82.1,122.5,81.2z"/>
<path class="st5" d="M119.8,85.4c0-0.6-0.5-1.1-1.1-1.1c-0.6,0-1.1,0.5-1.1,1.1c0,0.6,0.5,1.1,1.1,1.1
	C119.3,86.6,119.8,86.1,119.8,85.4z"/>
<path class="st5" d="M116.9,88c0-0.8-0.6-1.4-1.4-1.4c-0.8,0-1.4,0.6-1.4,1.4c0,0.8,0.6,1.4,1.4,1.4C116.2,89.4,116.9,88.8,116.9,88
	z"/>
<path class="st5" d="M113.2,85.8c0-0.5-0.4-1-1-1c-0.5,0-1,0.4-1,1c0,0.5,0.4,1,1,1C112.8,86.8,113.2,86.4,113.2,85.8z"/>
</svg>
