<?xml version="1.0" encoding="utf-8"?>
<!-- Generator: Adobe Illustrator 22.0.1, SVG Export Plug-In . SVG Version: 6.00 Build 0)  -->
<svg version="1.1" id="Layer_1" xmlns="http://www.w3.org/2000/svg" xmlns:xlink="http://www.w3.org/1999/xlink" x="0px" y="0px"
	 viewBox="0 0 507.1 167.1" style="enable-background:new 0 0 507.1 167.1;" xml:space="preserve">
<style type="text/css">
	.st0{fill:#46afd6;}
</style>
<g>
	<path class="st0" d="M145.6,36.3c0-8.2-6.7-14.9-14.9-14.9s-14.9,6.7-14.9,14.9s6.7,14.9,14.9,14.9
		C138.9,51.2,145.6,44.5,145.6,36.3z"/>
	<path class="st0" d="M167.9,61.4c0-8.2-6.7-14.9-14.9-14.9s-14.9,6.7-14.9,14.9s6.7,14.9,14.9,14.9S167.9,69.6,167.9,61.4z"/>
	<path class="st0" d="M112.2,21.8c0-7.9-6.4-14.4-14.4-14.4c-7.9,0-14.4,6.4-14.4,14.4c0,7.9,6.4,14.4,14.4,14.4
		C105.8,36.2,112.2,29.8,112.2,21.8z"/>
	<path class="st0" d="M77.7,29.9c0-7.5-6.1-13.5-13.5-13.5c-7.5,0-13.5,6.1-13.5,13.5c0,7.5,6.1,13.5,13.5,13.5S77.7,37.4,77.7,29.9
		z"/>
	<path class="st0" d="M102.2,59.1c0-7.3-5.9-13.2-13.2-13.2c-7.3,0-13.2,5.9-13.2,13.2S81.7,72.3,89,72.3
		C96.2,72.4,102.2,66.4,102.2,59.1z"/>
	<path class="st0" d="M121.7,60.8c0-3.9-3.2-7.1-7.1-7.1s-7.1,3.2-7.1,7.1s3.2,7.1,7.1,7.1S121.7,64.7,121.7,60.8z"/>
	<path class="st0" d="M132.3,69.7c0-2.1-1.7-3.8-3.8-3.8c-2.1,0-3.8,1.7-3.8,3.8c0,2.1,1.7,3.8,3.8,3.8S132.3,71.8,132.3,69.7z"/>
	<path class="st0" d="M53.2,48.8c0-7.5-6.1-13.5-13.5-13.5c-7.5,0-13.5,6.1-13.5,13.5c0,7.5,6.1,13.5,13.5,13.5S53.2,56.3,53.2,48.8
		z"/>
	<path class="st0" d="M74,72.9c0-7.1-5.7-12.8-12.8-12.8s-12.8,5.7-12.8,12.8s5.7,12.8,12.8,12.8C68.3,85.7,74,80,74,72.9z"/>
	<path class="st0" d="M39.3,75c0-5.6-4.6-10.2-10.2-10.2S18.9,69.4,18.9,75s4.6,10.2,10.2,10.2S39.3,80.6,39.3,75z"/>
	<path class="st0" d="M35.9,97.8c0-4.7-3.8-8.5-8.5-8.5s-8.5,3.8-8.5,8.5s3.8,8.5,8.5,8.5S35.9,102.5,35.9,97.8z"/>
	<path class="st0" d="M61.5,98.9c0-5.6-4.6-10.2-10.2-10.2s-10.2,4.6-10.2,10.2s4.6,10.2,10.2,10.2C57,109.1,61.5,104.6,61.5,98.9z"
		/>
	<path class="st0" d="M37.6,117.9c0-3.8-3.1-6.8-6.8-6.8c-3.8,0-6.8,3.1-6.8,6.8c0,3.8,3.1,6.8,6.8,6.8
		C34.5,124.7,37.6,121.6,37.6,117.9z"/>
	<path class="st0" d="M52.7,119.1c0-3.2-2.6-5.7-5.7-5.7c-3.2,0-5.7,2.6-5.7,5.7c0,3.2,2.6,5.7,5.7,5.7
		C50.1,124.8,52.7,122.3,52.7,119.1z"/>
	<path class="st0" d="M36.5,134.6c0-2.8-2.3-5.1-5.1-5.1s-5.2,2.3-5.2,5.1s2.3,5.2,5.2,5.2C34.2,139.7,36.5,137.4,36.5,134.6z"/>
	<path class="st0" d="M28.2,147.6c0-1.9-1.6-3.5-3.5-3.5s-3.5,1.6-3.5,3.5s1.6,3.5,3.5,3.5S28.2,149.6,28.2,147.6z"/>
	<path class="st0" d="M19.1,155.4c0-2.4-2-4.4-4.4-4.4s-4.4,2-4.4,4.4s2,4.4,4.4,4.4C17.1,159.8,19.1,157.9,19.1,155.4z"/>
	<path class="st0" d="M7.7,148.8c0-1.7-1.4-3-3-3c-1.7,0-3,1.4-3,3c0,1.7,1.4,3.1,3,3.1C6.3,151.8,7.7,150.4,7.7,148.8z"/>
</g>
<g>
	<path class="st0" d="M79.8,134c-0.9-0.4-0.9-0.7-0.9-2.4c0-3.1,0.3-5.7,0.3-6.7c0.1-0.7,0.2-1,0.5-1c0.4,0,0.4,0.2,0.4,0.7
		c0,0.6,0,1.4,0.2,2.3c0.9,4.7,5.1,6.4,9.3,6.4c6,0,9-4.3,9-8.4c0-4.3-1.8-6.9-7.2-11.3l-2.8-2.3c-6.7-5.5-8.2-9.4-8.2-13.7
		c0-6.7,5-11.3,13-11.3c2.5,0,4.3,0.3,5.9,0.6c1.2,0.3,1.7,0.3,2.2,0.3s0.6,0.1,0.6,0.4s-0.3,2.4-0.3,6.7c0,1-0.1,1.4-0.4,1.4
		c-0.4,0-0.4-0.3-0.5-0.8c-0.1-0.8-0.4-2.5-0.8-3.1c-0.4-0.7-2.1-3.3-7.9-3.3c-4.3,0-7.7,2.7-7.7,7.3c0,3.6,1.6,5.9,7.7,10.6
		l1.8,1.4c7.4,5.9,9.2,9.8,9.2,14.8c0,2.6-1,7.4-5.3,10.4c-2.7,1.9-6.1,2.6-9.5,2.6C85.2,135.7,82.4,135.3,79.8,134z"/>
	<path class="st0" d="M118.2,109.9c0-8.3,0-9.8-0.1-11.5c-0.1-1.8-0.4-2.7-2.3-3c-0.4-0.1-1.4-0.1-1.9-0.1c-0.2,0-0.4-0.3-0.4-0.4
		c0-0.3,0.3-0.4,0.9-0.4c2.5,0,6,0.1,6.4,0.1c1.2,0,5.3-0.1,7.9-0.1c7.1,0,9.6,2.2,10.6,3c1.3,1.1,2.8,3.5,2.8,6.4
		c0,7.7-5.8,12.8-14.3,12.8c-0.3,0-1.3,0-1.6-0.1c-0.3,0-0.6-0.3-0.6-0.5c0-0.4,0.3-0.6,1.4-0.6c6,0,10.3-3.8,10.3-8.6
		c0-1.8-0.2-5.2-3.1-8.1c-2.9-2.9-6.2-2.6-7.5-2.6c-0.9,0-2.5,0.3-3.1,0.4c-0.3,0.1-0.4,0.4-0.4,1v21.8c0,5.2,0,9.4,0.3,11.6
		c0.2,1.6,0.5,2.6,2.2,2.8c0.8,0.1,2,0.3,2.5,0.3c0.3,0,0.4,0.3,0.4,0.4c0,0.3-0.3,0.4-0.9,0.4c-3,0-6.7-0.2-6.9-0.2
		c-0.2,0-3.8,0.2-5.5,0.2c-0.6,0-0.9-0.1-0.9-0.4c0-0.2,0.1-0.4,0.4-0.4c0.5,0,1.2-0.1,1.7-0.3c1.1-0.3,1.2-1.3,1.4-2.8
		c0.3-2.2,0.3-6.4,0.3-11.6C118.2,119.4,118.2,109.9,118.2,109.9z"/>
	<path class="st0" d="M160.9,95.4c0.7-1.8,0.9-2.1,1.3-2.1c0.6,0,0.8,0.8,1.3,2c1,2.3,9.9,24.3,13.3,32.5c2,4.8,3.5,5.5,4.7,5.9
		c0.8,0.3,1.6,0.3,2.2,0.3c0.3,0,0.7,0.1,0.7,0.4c0,0.3-0.6,0.4-1.3,0.4c-0.8,0-4.9,0-8.7-0.1c-1.1-0.1-2-0.1-2-0.4
		c0-0.3,0.1-0.3,0.4-0.4c0.3-0.1,0.9-0.6,0.5-1.4l-5-12.3c-0.1-0.3-0.2-0.3-0.5-0.3H155c-0.3,0-0.4,0.1-0.6,0.4l-3.1,8.6
		c-0.5,1.3-0.8,2.6-0.8,3.6c0,1.1,0.9,1.4,1.9,1.4h0.5c0.4,0,0.6,0.2,0.6,0.4c0,0.3-0.3,0.4-0.8,0.4c-1.3,0-4.3-0.2-5-0.2
		c-0.6,0-3.3,0.2-5.6,0.2c-0.7,0-1.1-0.1-1.1-0.4c0-0.3,0.3-0.4,0.5-0.4c0.4,0,1.2-0.1,1.6-0.1c2.5-0.3,3.6-2.2,4.7-4.9L160.9,95.4z
		 M167.1,117.7c0.3,0,0.3-0.1,0.2-0.4l-5.5-14.7c-0.3-0.8-0.6-0.8-0.9,0l-5.2,14.7c-0.1,0.3,0,0.4,0.2,0.4H167.1z"/>
	<path class="st0" d="M191.8,109.9c0-8.3,0-9.8-0.1-11.5c-0.1-1.8-0.4-2.7-2.3-3c-0.4-0.1-1.4-0.1-1.9-0.1c-0.2,0-0.4-0.3-0.4-0.4
		c0-0.3,0.3-0.4,0.9-0.4c2.5,0,6.2,0.1,6.5,0.1c0.6,0,5.2-0.1,6.9-0.1c3.5,0,7.4,0.3,10.3,2.3c1.4,1,3.8,3.6,3.8,7.3
		c0,4-1.6,7.8-6.8,12.2c4.5,5.7,8.4,10.5,11.6,13.8c3,3,4.8,3.5,6.2,3.7c1.1,0.2,1.6,0.2,2,0.2c0.3,0,0.5,0.3,0.5,0.4
		c0,0.3-0.3,0.4-1.3,0.4h-3.5c-3.1,0-4.5-0.3-5.9-1.1c-2.4-1.3-4.4-3.8-7.6-7.9c-2.3-2.9-4.8-6.4-6-7.8c-0.3-0.3-0.4-0.3-0.8-0.3
		l-7-0.1c-0.3,0-0.4,0.1-0.4,0.4v1.3c0,5.2,0,9.3,0.3,11.5c0.2,1.6,0.5,2.6,2.2,2.8c0.8,0.1,2,0.3,2.5,0.3c0.4,0,0.4,0.3,0.4,0.4
		c0,0.3-0.3,0.4-0.9,0.4c-3,0-6.5-0.2-6.8-0.2c-0.1,0-3.8,0.2-5.5,0.2c-0.6,0-0.9-0.1-0.9-0.4c0-0.2,0.1-0.4,0.4-0.4
		c0.5,0,1.2-0.1,1.7-0.3c1.1-0.3,1.2-1.3,1.4-2.8c0.3-2.2,0.3-6.4,0.3-11.6v-9.3H191.8z M196.5,114.4c0,0.3,0.1,0.5,0.4,0.7
		c0.8,0.4,3.6,0.8,6.1,0.8c1.3,0,2.8-0.1,4.2-0.9c1.9-1.3,3.3-4.1,3.3-8.2c0-6.7-3.6-10.5-9.6-10.5c-1.6,0-3.4,0.2-4,0.3
		c-0.3,0.1-0.4,0.3-0.4,0.6V114.4z"/>
	<path class="st0" d="M243.2,119.3c0,5.2,0,9.4,0.3,11.6c0.2,1.6,0.4,2.6,2.1,2.8c0.8,0.1,2,0.3,2.5,0.3c0.4,0,0.4,0.3,0.4,0.4
		c0,0.3-0.3,0.4-0.9,0.4c-3,0-6.5-0.2-6.9-0.2c-0.3,0-4.1,0.2-5.7,0.2c-0.6,0-0.9-0.1-0.9-0.4c0-0.2,0.1-0.4,0.4-0.4
		c0.5,0,1.1-0.1,1.6-0.3c1.1-0.3,1.4-1.3,1.6-2.9c0.3-2.2,0.3-6.4,0.3-11.6V96.8l-8,0.1c-3.5,0.1-4.8,0.4-5.6,1.7
		c-0.6,0.9-0.7,1.3-0.9,1.7c-0.1,0.4-0.3,0.5-0.6,0.5c-0.1,0-0.4-0.1-0.4-0.4c0-0.6,1.1-5.3,1.2-5.8c0.1-0.3,0.4-1,0.6-1
		c0.4,0,0.9,0.4,2.5,0.6s3.7,0.3,4.3,0.3H252c1.8,0,3.1-0.1,4-0.3c0.8-0.1,1.3-0.3,1.6-0.3c0.3,0,0.3,0.3,0.3,0.6
		c0,1.6-0.2,5.5-0.2,6.1c0,0.4-0.3,0.7-0.5,0.7c-0.3,0-0.4-0.2-0.4-0.9l-0.1-0.6c-0.2-1.6-1.4-2.8-6.7-3l-6.9-0.1L243.2,119.3
		L243.2,119.3z"/>
	<path class="st0" d="M275.4,95.4c0.7-1.8,0.9-2.1,1.3-2.1c0.6,0,0.8,0.8,1.3,2c1,2.3,9.9,24.3,13.3,32.5c2,4.8,3.5,5.5,4.7,5.9
		c0.8,0.3,1.6,0.3,2.2,0.3c0.3,0,0.7,0.1,0.7,0.4c0,0.3-0.6,0.4-1.3,0.4c-0.8,0-4.9,0-8.7-0.1c-1.1-0.1-1.9-0.1-1.9-0.4
		c0-0.3,0.1-0.3,0.4-0.4c0.3-0.1,0.9-0.6,0.5-1.4l-5-12.3c-0.1-0.3-0.2-0.3-0.5-0.3h-12.8c-0.3,0-0.4,0.1-0.6,0.4l-3.1,8.6
		c-0.5,1.3-0.8,2.6-0.8,3.6c0,1.1,0.9,1.4,1.9,1.4h0.5c0.4,0,0.6,0.2,0.6,0.4c0,0.3-0.3,0.4-0.8,0.4c-1.3,0-4.3-0.2-5-0.2
		c-0.6,0-3.3,0.2-5.6,0.2c-0.7,0-1.1-0.1-1.1-0.4c0-0.3,0.3-0.4,0.5-0.4c0.4,0,1.2-0.1,1.6-0.1c2.5-0.3,3.6-2.2,4.7-4.9L275.4,95.4z
		 M281.6,117.7c0.3,0,0.3-0.1,0.2-0.4l-5.5-14.7c-0.3-0.8-0.6-0.8-0.9,0l-5.2,14.7c-0.1,0.3,0,0.4,0.2,0.4H281.6z"/>
	<path class="st0" d="M308.5,127.5c0.1,4.4,0.6,5.7,2.1,6.1c1,0.3,2.3,0.3,2.8,0.3c0.3,0,0.4,0.2,0.4,0.4c0,0.3-0.4,0.4-1,0.4
		c-3.1,0-5.3-0.2-5.9-0.2c-0.5,0-2.8,0.2-5.3,0.2c-0.6,0-0.9-0.1-0.9-0.4c0-0.3,0.2-0.4,0.4-0.4c0.4,0,1.4-0.1,2.3-0.3
		c1.4-0.4,1.6-1.8,1.6-6.7V96.3c0-2.1,0.3-2.7,0.8-2.7c0.6,0,1.6,1.1,2.1,1.6c0.9,0.9,8.9,9.4,17.5,18.2c5.5,5.7,11.4,12,13.1,13.8
		l-0.6-26.8c-0.1-3.5-0.4-4.7-2.1-5c-1-0.2-2.3-0.3-2.7-0.3c-0.4,0-0.4-0.3-0.4-0.5c0-0.3,0.4-0.4,1.1-0.4c2.5,0,5.2,0.1,5.8,0.1
		c0.6,0,2.5-0.1,4.7-0.1c0.6,0,1,0.1,1,0.4c0,0.2-0.3,0.5-0.6,0.5c-0.3,0-0.7,0-1.3,0.1c-1.8,0.4-2,1.4-2,4.7l-0.1,31.3
		c0,3.5-0.1,3.8-0.4,3.8c-0.6,0-1.1-0.4-4.2-3.3c-0.6-0.5-8.6-8.4-14.4-14.5c-6.4-6.7-12.6-13.3-14.3-15.2L308.5,127.5z"/>
	<path class="st0" d="M369.3,115.1c1.1,0,1.9,0.1,1.9,0.6c0,0.8-1.2,0.9-2.2,1.1c-1.7,0.3-12.8,1.8-15,2.3c-1.2,0.3-2.3,0.9-2.6,0.9
		c-0.4,0-0.4-0.4-0.3-0.9l0.9-3.5c0.1-0.4,0.4-0.5,1.4-0.5H369.3z"/>
	<path class="st0" d="M386.3,126.3c0.1,5.2,0.8,6.8,2.5,7.3c1.2,0.3,2.6,0.4,3.1,0.4c0.3,0,0.5,0.1,0.5,0.4c0,0.4-0.4,0.5-1.1,0.5
		c-3.6,0-6.1-0.2-6.7-0.2s-3.2,0.2-6,0.2c-0.6,0-1-0.1-1-0.5c0-0.3,0.2-0.4,0.5-0.4c0.5,0,1.6-0.1,2.6-0.4c1.6-0.4,1.9-2.3,1.9-8
		l0.1-36.1c0-2.5,0.2-3.1,0.7-3.1s1.6,1.4,2.2,2c0.9,1.1,10.3,11.2,20,21.6c6.2,6.7,13.1,14.3,15.1,16.4l-0.7-32
		c-0.1-4.1-0.5-5.5-2.5-6c-1.1-0.3-2.6-0.3-3.1-0.3c-0.4,0-0.5-0.2-0.5-0.4c0-0.4,0.5-0.4,1.3-0.4c2.8,0,5.8,0.2,6.5,0.2
		s2.8-0.2,5.3-0.2c0.7,0,1.1,0.1,1.1,0.4s-0.3,0.4-0.7,0.4c-0.3,0-0.8,0-1.5,0.2c-2.1,0.4-2.3,1.8-2.3,5.6l-0.1,36.9
		c0,4.2-0.1,4.5-0.6,4.5s-1.3-0.7-4.6-4c-0.7-0.6-9.8-9.9-16.4-17c-7.3-7.9-14.4-15.8-16.4-18.1L386.3,126.3z"/>
	<path class="st0" d="M442.7,109.9c0-8.3,0-9.8-0.1-11.5c-0.1-1.8-0.4-2.7-2.3-3c-0.4-0.1-1.4-0.1-1.9-0.1c-0.2,0-0.4-0.3-0.4-0.4
		c0-0.3,0.3-0.4,0.9-0.4c2.5,0,6.1,0.1,6.4,0.1c0.4,0,12,0.1,13.2,0c1.1-0.1,2.1-0.3,2.5-0.3c0.3-0.1,0.5-0.3,0.8-0.3
		c0.2,0,0.3,0.3,0.3,0.5c0,0.4-0.3,1-0.4,2.5c-0.1,0.5-0.2,2.9-0.3,3.5c-0.1,0.3-0.3,0.6-0.5,0.6c-0.3,0-0.4-0.3-0.4-0.7
		c0-0.4-0.1-1.3-0.3-1.9c-0.4-0.9-0.9-1.3-4-1.6c-0.9-0.1-7.4-0.2-8-0.2c-0.3,0-0.3,0.2-0.3,0.6v14.5c0,0.4,0,0.6,0.3,0.6
		c0.7,0,8,0,9.2-0.1c1.3-0.1,2.1-0.2,2.7-0.8c0.4-0.4,0.6-0.7,0.8-0.7c0.2,0,0.3,0.1,0.3,0.4s-0.3,1.2-0.4,3
		c-0.1,1.1-0.3,3.1-0.3,3.5s-0.1,1-0.5,1c-0.3,0-0.4-0.2-0.4-0.5c0-0.5,0-1.1-0.3-1.8c-0.2-0.8-0.7-1.4-2.8-1.6
		c-1.5-0.2-7.4-0.3-8.4-0.3c-0.3,0-0.4,0.2-0.4,0.4v4.5c0,1.8-0.1,8.1,0,9.1c0.1,3.6,1.1,4.3,6.6,4.3c1.4,0,4.1,0,5.5-0.6
		s2.2-1.6,2.5-3.7c0.1-0.6,0.3-0.8,0.6-0.8c0.3,0,0.4,0.4,0.4,0.8c0,0.4-0.4,4-0.8,5.2c-0.4,1.4-0.9,1.4-3.1,1.4
		c-4.2,0-7.4-0.1-9.6-0.2c-2.3-0.1-3.8-0.1-4.6-0.1c-0.1,0-1.2,0-2.4,0.1c-1.1,0.1-2.3,0.1-3.2,0.1c-0.6,0-0.9-0.1-0.9-0.4
		c0-0.2,0.1-0.4,0.4-0.4c0.5,0,1.2-0.2,1.7-0.3c1.1-0.2,1.2-1.3,1.4-2.8c0.3-2.2,0.3-6.4,0.3-11.6v-9.6H442.7z"/>
	<path class="st0" d="M489.5,119.3c0,5.2,0,9.4,0.3,11.6c0.2,1.6,0.4,2.6,2.1,2.8c0.8,0.1,2,0.3,2.5,0.3c0.4,0,0.4,0.3,0.4,0.4
		c0,0.3-0.3,0.4-0.9,0.4c-3,0-6.5-0.2-6.9-0.2c-0.3,0-4.1,0.2-5.7,0.2c-0.6,0-0.9-0.1-0.9-0.4c0-0.2,0.1-0.4,0.4-0.4
		c0.5,0,1.1-0.1,1.6-0.3c1.1-0.3,1.4-1.3,1.6-2.9c0.3-2.2,0.3-6.4,0.3-11.6V96.8l-8,0.1c-3.5,0.1-4.8,0.4-5.6,1.7
		c-0.6,0.9-0.7,1.3-0.9,1.7c-0.1,0.4-0.3,0.5-0.6,0.5c-0.1,0-0.4-0.1-0.4-0.4c0-0.6,1.1-5.3,1.2-5.8c0.1-0.3,0.4-1,0.6-1
		c0.4,0,0.9,0.4,2.5,0.6s3.7,0.3,4.3,0.3h20.9c1.8,0,3.1-0.1,4-0.3c0.8-0.1,1.3-0.3,1.6-0.3c0.3,0,0.3,0.3,0.3,0.6
		c0,1.6-0.2,5.5-0.2,6.1c0,0.4-0.3,0.7-0.5,0.7c-0.3,0-0.4-0.2-0.4-0.9l-0.1-0.6c-0.2-1.6-1.4-2.8-6.7-3l-6.9-0.1v22.6H489.5z"/>
</g>
</svg>
