<?xml version="1.0" encoding="utf-8"?>
<!-- Generator: Adobe Illustrator 22.0.1, SVG Export Plug-In . SVG Version: 6.00 Build 0)  -->
<svg version="1.1"
	 id="Layer_1" inkscape:version="0.91 r13725" sodipodi:docname="DirecTV_2016.svg" xmlns:cc="http://creativecommons.org/ns#" xmlns:dc="http://purl.org/dc/elements/1.1/" xmlns:inkscape="http://www.inkscape.org/namespaces/inkscape" xmlns:rdf="http://www.w3.org/1999/02/22-rdf-syntax-ns#" xmlns:sodipodi="http://sodipodi.sourceforge.net/DTD/sodipodi-0.dtd" xmlns:svg="http://www.w3.org/2000/svg"
	 xmlns="http://www.w3.org/2000/svg" xmlns:xlink="http://www.w3.org/1999/xlink" x="0px" y="0px" viewBox="0 0 283.9 279.7"
	 style="enable-background:new 0 0 283.9 279.7;" xml:space="preserve">
<style type="text/css">
	.st0{fill:#00A8E0;}
</style>
<sodipodi:namedview  bordercolor="#666666" borderopacity="1" gridtolerance="10" guidetolerance="10" id="namedview23" inkscape:current-layer="Layer_1" inkscape:cx="476.18767" inkscape:cy="148.2711" inkscape:pageopacity="0" inkscape:pageshadow="2" inkscape:window-height="709" inkscape:window-maximized="1" inkscape:window-width="1366" inkscape:window-x="-8" inkscape:window-y="-8" inkscape:zoom="1.0059694" objecttolerance="10" pagecolor="#ffffff" showgrid="false">
	</sodipodi:namedview>
<g id="g3">
	<path id="path7" class="st0" d="M54.1,250.3c23.7,18.4,53.5,29.4,85.8,29.4c35.4,0,67.6-13.1,92.2-34.7c0.3-0.3,0.2-0.4-0.1-0.3
		c-11,7.4-42.5,23.5-92,23.5c-43,0-70.3-9.6-85.6-18.2C54,249.9,53.9,250.1,54.1,250.3 M149.4,257.5c34.4,0,72.3-9.4,94.9-28
		c6.2-5.1,12.1-11.8,17.4-20.9c3-5.2,6-11.4,8.4-17.5c0.1-0.3-0.1-0.4-0.3-0.1c-21,31-82,50.3-144.9,50.3
		c-44.5,0-92.3-14.2-111.1-41.4c-0.2-0.3-0.4-0.1-0.3,0.1C31.1,237.2,84,257.5,149.4,257.5 M111.8,195.9
		c-71.6,0-105.4-33.4-111.5-56.1c-0.1-0.3-0.3-0.3-0.3,0c0,7.7,0.8,17.6,2.1,24.1c0.6,3.2,3.2,8.2,7,12.2
		c17.3,18.1,60.6,43.4,135.4,43.4c102,0,125.3-34,130.1-45.2c3.4-8,5.2-22.4,5.2-34.6c0-2.9-0.1-5.3-0.2-7.6c0-0.4-0.2-0.4-0.3,0
		C274.3,159.6,187.1,195.9,111.8,195.9 M13.5,79.9c-4.1,8.1-8.7,21.9-10,29c-0.6,3-0.3,4.5,0.7,6.8c8.6,18.2,52,47.3,153.3,47.3
		c61.8,0,109.8-15.2,117.5-42.9c1.4-5.1,1.5-10.5-0.3-17.7c-2.1-8.1-5.9-17.6-9.2-24.2c-0.1-0.2-0.3-0.2-0.3,0.1
		c1.2,36.3-100.1,59.7-151.2,59.7c-55.4,0-101.6-22.1-101.6-49.9c0-2.7,0.6-5.4,1.2-8.1C13.8,79.7,13.6,79.6,13.5,79.9 M232.3,35.3
		c0.6,0.9,0.9,1.9,0.9,3.2c0,15.5-47.6,43-123.3,43c-55.6,0-66-20.6-66-33.8c0-4.7,1.8-9.5,5.8-14.4c0.2-0.3,0-0.4-0.2-0.2
		c-7.2,6.1-13.9,13-19.7,20.5c-2.8,3.5-4.5,6.6-4.5,8.5c0,27.2,68.2,46.9,132,46.9c67.9,0,98.3-22.2,98.3-41.7c0-7-2.7-11-9.6-18.9
		c-4.5-5.1-8.8-9.3-13.3-13.4C232.3,34.9,232.2,35,232.3,35.3 M211.5,19.7C190.5,7.2,166.2,0,139.9,0c-26.4,0-51.5,7.4-72.6,20.3
		c-6.3,3.9-9.9,7-9.9,11c0,11.8,27.6,24.5,76.5,24.5c48.4,0,85.9-13.9,85.9-27.3C219.9,25.3,217.1,23.1,211.5,19.7"/>
</g>
</svg>
